<svg id="design" xmlns="http://www.w3.org/2000/svg" xmlns:xlink="http://www.w3.org/1999/xlink" viewBox="0 0 200 180"><defs><style>.cls-1,.cls-2,.cls-3,.cls-7{fill:none;}.cls-2,.cls-3,.cls-4,.cls-7{stroke:#eaeaea;}.cls-11,.cls-12,.cls-2,.cls-3,.cls-4,.cls-7{stroke-miterlimit:10;}.cls-2{stroke-width:8px;}.cls-3,.cls-4{stroke-width:7px;}.cls-4{fill:#fff;}.cls-5{fill:#9ad9fc;}.cls-6{fill:#70bef2;}.cls-7{stroke-width:10px;}.cls-8{fill:#ed8b00;}.cls-9{clip-path:url(#clip-path);}.cls-10{fill:#fbb040;}.cls-11{fill:#0f89db;stroke:#0f89db;}.cls-12{fill:#005eb8;stroke:#005eb8;}</style><clipPath id="clip-path"><ellipse class="cls-1" cx="73.4" cy="117.09" rx="36.25" ry="37.43"/></clipPath></defs><title>bd</title><line class="cls-2" x1="154.95" y1="18.98" x2="154.08" y2="103.93"/><line class="cls-2" x1="111.84" y1="61.12" x2="197.09" y2="61.8"/><line class="cls-3" x1="30.39" y1="6.65" x2="30.39" y2="61.6"/><line class="cls-3" x1="2.91" y1="34.13" x2="57.77" y2="34.13"/><circle class="cls-4" cx="30.39" cy="34.13" r="17.67"/><path class="cls-5" d="M22.14,43.93l5-2.14c.39-.1.49-.58.68-.87s-.1-.58-.39-.58H24a8,8,0,0,1-2.33-.58c-.58-.29-.78-.58-.39-1,1-1.46,3.3-5,3.4-8.54,0,0,.1-5.53,5.63-5.63a5.42,5.42,0,0,1,5.44,3.5,9.2,9.2,0,0,1,.68,2.82,19.42,19.42,0,0,0,2.82,8c.39.49.1,1-.39,1.36a3.11,3.11,0,0,1-1.75.39H33.5c-.39,0-.49.49-.29.78s.39.39.58.39L38,44.32a6.39,6.39,0,0,1,1.46,1.36,14.19,14.19,0,0,1-9.22,3.2,14.54,14.54,0,0,1-9.51-3.5A2.65,2.65,0,0,1,22.14,43.93Z"/><path class="cls-6" d="M30.29,19.56A14.52,14.52,0,0,0,15.73,34a14.35,14.35,0,0,0,5,11A4,4,0,0,1,22,44l5-2.14c.39-.1.49-.58.68-.87s-.1-.58-.39-.58H23.79a8,8,0,0,1-2.33-.58c-.58-.29-.78-.58-.39-1,1-1.46,3.3-5,3.4-8.54,0,0,.1-5.53,5.63-5.63a5.42,5.42,0,0,1,5.44,3.5A9.2,9.2,0,0,1,36.21,31,17.39,17.39,0,0,0,39,39c.39.49.1,1-.39,1.36a3.11,3.11,0,0,1-1.75.39H33.3c-.39,0-.49.49-.29.78s.39.39.58.39l4.17,2.52a6.39,6.39,0,0,1,1.46,1.36.1.1,0,0,1,.1.1,14.22,14.22,0,0,0,5.44-11.26A14.46,14.46,0,0,0,30.29,19.56Z"/><line class="cls-7" x1="73.4" y1="61.12" x2="73.4" y2="173.35"/><line class="cls-7" x1="17.18" y1="117.14" x2="129.42" y2="117.14"/><path class="cls-8" d="M73.4,79.85A37,37,0,0,0,48.93,145a9.59,9.59,0,0,1,3.2-2.72L65,136.94c.68-.29,1.17-1.55,1.75-2.23a1.12,1.12,0,0,0-1-1.55H56.6a20.8,20.8,0,0,1-5.73-1.36c-1.55-.68-2-1.55-1-2.72,2.72-3.69,8.25-12.72,8.45-22.14,0,0,.29-14.17,14.56-14.47,8.25,0,12.33,5,14,9a22.86,22.86,0,0,1,1.75,7.28c.68,8.83,5,16.89,7.28,20.49a2.81,2.81,0,0,1-.68,3.5,7.19,7.19,0,0,1-4.47.68H81.55c-.78,0-1.17,1.17-.68,1.84a13.29,13.29,0,0,0,1.36,1l10.68,6.6a10.61,10.61,0,0,1,3.69,3.5.19.19,0,0,1,.19.19,37.55,37.55,0,0,0-23.4-66.7Z"/><g class="cls-9"><path class="cls-10" d="M52.19,142.4l13-5.37c.68-.29,1.17-1.56,1.76-2.25a1.13,1.13,0,0,0-1-1.56H56.69a20.94,20.94,0,0,1-5.77-1.37c-1.56-.68-2.05-1.56-1-2.74,2.74-3.71,8.31-12.8,8.5-22.28,0,0,.29-14.27,14.66-14.56,8.31,0,12.41,5.08,14.07,9.09a23,23,0,0,1,1.76,7.33c.68,8.89,5.08,17,7.33,20.62a2.83,2.83,0,0,1-.68,3.52,7.24,7.24,0,0,1-4.5.68H81.8c-.78,0-1.17,1.17-.68,1.86a13.38,13.38,0,0,0,1.37,1L93.24,143a11.65,11.65,0,0,1,3.71,3.52,38.12,38.12,0,0,1-23.65,8.21A37,37,0,0,1,49,145.82,5.35,5.35,0,0,1,52.19,142.4Z"/></g><path class="cls-11" d="M147.77,75.1,140.49,79c-.39.19-.78.49-1.17.68A25.1,25.1,0,0,0,155,85.29a24.62,24.62,0,0,0,15.73-5.53,8.44,8.44,0,0,0-1.36-.78l-8-3.69a3,3,0,0,1-1.65-2.62v-3.2a6.85,6.85,0,0,0,.68-.87,17.88,17.88,0,0,0,2.43-4.66,2.48,2.48,0,0,0,1.84-2.23V58.5a2.27,2.27,0,0,0-.78-1.75V52s1-7.18-9.22-7.18S145.53,52,145.53,52v4.66a2.43,2.43,0,0,0-.78,1.75v3.2a2.67,2.67,0,0,0,1.07,2,16,16,0,0,0,3.2,5.92v2.82C149.42,73.54,148.83,74.42,147.77,75.1Z"/><path class="cls-12" d="M154.76,37.72a23.82,23.82,0,0,0-15.53,41.94,4,4,0,0,1,1.07-.68l7-3.88a3.23,3.23,0,0,0,1.65-2.52v-3a14.67,14.67,0,0,1-2.82-5.92,2.44,2.44,0,0,1-1-2V58.4a2.59,2.59,0,0,1,.68-1.75V52s-.87-7.18,8.74-7.18S163.3,52,163.3,52v4.66A2.34,2.34,0,0,1,164,58.4v3.2a2.18,2.18,0,0,1-1.75,2.23,19,19,0,0,1-2.33,4.66,3.37,3.37,0,0,0-.58.87v3A2.71,2.71,0,0,0,161,75l7.57,3.69a8.86,8.86,0,0,1,1.26.78,24.59,24.59,0,0,0,8.54-17.86C178,48.69,167.67,37.82,154.76,37.72Z"/><circle class="cls-3" cx="154.57" cy="61.44" r="27.38" transform="matrix(0.01, -1, 1, 0.01, 91.76, 215.46)"/><circle class="cls-3" cx="73.4" cy="117.14" r="40.58"/></svg>