<svg id="design" xmlns="http://www.w3.org/2000/svg" viewBox="0 0 200 180"><defs><style>.cls-1{fill:#f4f4f4;}.cls-2{fill:#d3d3d3;}.cls-3{fill:#e8e8e8;}.cls-4{fill:#005eb8;}.cls-5{fill:#fff;}.cls-6{fill:#0f89db;}</style></defs><title>bd</title><path class="cls-1" d="M165.81,44.52,133.87,64.25l4.2,11.3,20.82,10.65,8-2.19,8,2.19,21.36-11,3.66-11L168.07,44.52A2.19,2.19,0,0,0,165.81,44.52Z"/><polygon class="cls-2" points="166.94 84 162.55 89.48 162.55 114.36 166.94 119.11 197.84 100.65 197.85 100.65 200 99.36 200 96.83 200 64.25 166.94 84"/><polygon class="cls-3" points="133.87 64.25 133.87 96.65 133.87 99.36 135.88 100.56 166.94 119.11 166.94 84 133.87 64.25"/><path class="cls-1" d="M31.93,44.52,0,64.25l4.2,11.3L25,86.19l8-2.19,8,2.19,21.36-11,3.66-11L34.19,44.52A2.19,2.19,0,0,0,31.93,44.52Z"/><polygon class="cls-2" points="33.06 84 28.68 89.48 28.68 114.36 33.06 119.11 63.97 100.65 63.97 100.65 66.13 99.36 66.13 96.83 66.13 64.25 33.06 84"/><polygon class="cls-3" points="0 64.25 0 96.65 0 99.36 2 100.56 33.06 119.11 33.06 84 0 64.25"/><path class="cls-1" d="M101.52,63.42,53.69,93,60,109.88l31.18,15.95,12.05-3.29,12.05,3.29,32-16.43L152.73,93,104.9,63.42A3.29,3.29,0,0,0,101.52,63.42Z"/><polygon class="cls-2" points="103.21 122.55 96.64 130.76 96.64 168.01 103.21 175.13 149.5 147.49 149.5 147.49 152.73 145.55 152.73 141.76 152.73 92.97 103.21 122.55"/><polygon class="cls-3" points="53.69 92.97 53.69 141.49 53.69 145.55 56.7 147.35 103.21 175.13 103.21 122.55 53.69 92.97"/><path class="cls-4" d="M100,4.87A31.89,31.89,0,0,0,68.17,36.7c0,21.85,28.59,53.95,29.67,55.3a2.81,2.81,0,0,0,4.32,0c1.35-1.35,29.67-33.45,29.67-55.3A31.89,31.89,0,0,0,100,4.87Z"/><path class="cls-5" d="M100,51.49A14.81,14.81,0,0,1,85.21,36.7,15,15,0,0,1,100,21.91,14.81,14.81,0,0,1,114.79,36.7,14.63,14.63,0,0,1,100,51.49Z"/><path class="cls-6" d="M100,24.91A11.81,11.81,0,0,1,111.79,36.7,11.68,11.68,0,0,1,100,48.49,11.81,11.81,0,0,1,88.21,36.7,11.94,11.94,0,0,1,100,24.91m0-6A18,18,0,0,0,82.21,36.7,17.79,17.79,0,1,0,100,18.91Z"/></svg>