<svg id="design" xmlns="http://www.w3.org/2000/svg" viewBox="0 0 200 180"><defs><style>.cls-1,.cls-13,.cls-2,.cls-3,.cls-4,.cls-5,.cls-6{fill:none;stroke-miterlimit:10;}.cls-1,.cls-2,.cls-3,.cls-4,.cls-5,.cls-6{stroke:#9ad9fc;stroke-width:3px;}.cls-2{stroke-dasharray:11.82 4.93;}.cls-3{stroke-dasharray:11.31 4.71;}.cls-4{stroke-dasharray:12.41 5.17;}.cls-5{stroke-dasharray:11.08 4.62;}.cls-6{stroke-dasharray:11.14 4.64;}.cls-7{fill:#9ad9fc;}.cls-8{fill:#fff;}.cls-9{fill:#0f89db;}.cls-10{fill:#005eb8;}.cls-11{fill:#ed8b00;}.cls-12{fill:#fbb040;}.cls-13{stroke:#eaeaea;stroke-width:7px;}</style></defs><title>bd</title><line class="cls-1" x1="113.78" y1="139.61" x2="107.78" y2="139.61"/><line class="cls-2" x1="102.86" y1="139.61" x2="38.33" y2="139.61"/><polyline class="cls-1" points="35.87 139.61 29.87 139.61 29.87 133.61"/><line class="cls-3" x1="29.87" y1="128.9" x2="29.87" y2="99.2"/><polyline class="cls-1" points="29.87 96.84 29.87 91.6 29.87 90.84 35.87 90.84"/><line class="cls-4" x1="41.04" y1="90.84" x2="161.55" y2="90.84"/><polyline class="cls-1" points="164.13 90.84 170.13 90.84 170.13 84.84"/><line class="cls-5" x1="170.13" y1="80.23" x2="170.13" y2="51.14"/><polyline class="cls-1" points="170.13 48.84 170.13 42.84 164.13 42.84"/><line class="cls-6" x1="159.49" y1="42.84" x2="82.93" y2="42.84"/><line class="cls-1" x1="80.61" y1="42.84" x2="74.61" y2="42.84"/><polygon class="cls-7" points="110.28 127.65 131 139.61 110.28 151.58 110.28 127.65"/><rect class="cls-8" x="56.65" y="86.53" width="85.09" height="9.51"/><path class="cls-9" d="M61.06,94.31v11.11H89.4l3-26.76H71.64L70.15,83.1l1.61,4-4.32,4Z"/><circle class="cls-10" cx="75.23" cy="105.42" r="6.95"/><circle class="cls-8" cx="75.23" cy="105.42" r="2.5"/><path class="cls-7" d="M70.15,83.1l-2.7,8.06h8.62V83.1Z"/><path class="cls-11" d="M89.4,105.42H99l3-23.93L99,67.64H89.4Z"/><path class="cls-12" d="M136.94,105.42H99V67.64h37.94Z"/><circle class="cls-10" cx="122.78" cy="105.41" r="6.94" transform="translate(-15.28 21) rotate(-9.21)"/><path class="cls-8" d="M120.27,105.42a2.5,2.5,0,1,0,2.5-2.5A2.5,2.5,0,0,0,120.27,105.42Z"/><path class="cls-12" d="M162.32,153.34,155,157.23c-.39.19-.78.49-1.17.68a25.1,25.1,0,0,0,15.73,5.63A24.62,24.62,0,0,0,185.33,158a8.44,8.44,0,0,0-1.36-.78l-8-3.69a3,3,0,0,1-1.65-2.62v-3.2a6.85,6.85,0,0,0,.68-.87,17.88,17.88,0,0,0,2.43-4.66,2.48,2.48,0,0,0,1.84-2.23v-3.2a2.27,2.27,0,0,0-.78-1.75v-4.76s1-7.18-9.22-7.18-9.22,7.18-9.22,7.18v4.66a2.43,2.43,0,0,0-.78,1.75v3.2a2.67,2.67,0,0,0,1.07,2,16,16,0,0,0,3.2,5.92v2.82C164,151.79,163.39,152.66,162.32,153.34Z"/><path class="cls-11" d="M169.31,116a23.82,23.82,0,0,0-15.53,41.94,4,4,0,0,1,1.07-.68l7-3.88a3.23,3.23,0,0,0,1.65-2.52v-3a14.67,14.67,0,0,1-2.82-5.92,2.44,2.44,0,0,1-1-2v-3.2a2.59,2.59,0,0,1,.68-1.75v-4.66s-.87-7.18,8.74-7.18,8.74,7.18,8.74,7.18v4.66a2.34,2.34,0,0,1,.68,1.75v3.2a2.18,2.18,0,0,1-1.75,2.23,19,19,0,0,1-2.33,4.66,3.37,3.37,0,0,0-.58.87v3a2.71,2.71,0,0,0,1.65,2.62l7.57,3.69a8.86,8.86,0,0,1,1.26.78,24.59,24.59,0,0,0,8.54-17.86C192.51,126.94,182.22,116.06,169.31,116Z"/><circle class="cls-13" cx="169.12" cy="139.69" r="27.38" transform="translate(27.94 307.57) rotate(-89.49)"/><path class="cls-12" d="M67.44,32.45V62.73H6.3V32.45l12.61-7v7l12.61-7v6.88l13.84-6.88v7Z"/><path class="cls-9" d="M62.75,13.11l2.09,19.35H48.46l2.09-19.35H62.75Z"/><path class="cls-10" d="M62.07,6.87l.67,6.24H50.55l.67-6.25.19,0H62.07Z"/><path class="cls-9" d="M61.33,0l.74,6.87H51.42l-.19,0L52,0Z"/><path class="cls-11" d="M50.13,47.12h9.71v8.33H50.13Z"/><path class="cls-11" d="M32,47.12h9.71v8.33H32Z"/><path class="cls-11" d="M14,47.12h9.71v8.33H14Z"/><line class="cls-13" y1="65.73" x2="73.74" y2="65.73"/></svg>