<svg id="design" xmlns="http://www.w3.org/2000/svg" viewBox="0 0 200 180"><defs><style>.cls-1{fill:#fdb143;}.cls-2{fill:none;stroke:#fbb040;}.cls-2,.cls-9{stroke-miterlimit:10;stroke-width:2px;}.cls-3{fill:#fdcda5;}.cls-4{fill:#e8ab7f;}.cls-5,.cls-9{fill:#fff;}.cls-6{fill:#e6e6e6;}.cls-7{fill:#0a0080;}.cls-8{fill:#005eb8;}.cls-9{stroke:#ed8b00;}.cls-10{fill:#ed8b00;}</style></defs><circle class="cls-1" cx="104.38" cy="94" r="5.04"/><line class="cls-2" x1="104.38" y1="94" x2="136.13" y2="94"/><path class="cls-3" d="M40.29,160.79h70.48v-7.5h21.42c-2.34-10.88-4.68-15.33-11.7-23.29-9.25-10.54-32-15.92-35.59-16.63-2.34-.46-2.93-2.81-3.05-4.33V89.37h-25v19.56c-.12,1.52-.7,3.86-3,4.33-3.52.7-26.23,6.08-35.59,16.62C10.56,138.54,8.33,143,5.88,156.1h34.3v4.69Z"/><path class="cls-4" d="M81.85,89.37h-25v14.29a19,19,0,0,0,7.14,1.4c6.79,0,13.11-3.63,18-9.71v-6Z"/><path class="cls-5" d="M54.93,121.69c-4.33-1.29-6.32-7.15-6.32-7.15a117.31,117.31,0,0,0-12.3,4.1,65.06,65.06,0,0,0,4.92,14.87c4.8-4.57,9.37-7,14.87-7s8.9,3,13.34,5C66.87,124.61,59.26,123,54.93,121.69Z"/><path class="cls-5" d="M83.73,121.69c4.33-1.29,6.32-7.15,6.32-7.15a116.46,116.46,0,0,1,12.29,4.1,64.45,64.45,0,0,1-4.92,14.87c-4.8-4.57-9.36-7-14.86-7s-8.9,3-13.35,5C71.79,124.61,79.4,123,83.73,121.69Z"/><path class="cls-6" d="M123.52,129.88C117.9,123.44,104.1,119,95.9,116.3c2.11.7,4.33,1.52,6.56,2.34a65.06,65.06,0,0,1-4.92,14.87c-4.8-4.57-9.36-7-14.87-7s-8.89,3-13.34,5c-4.45-2.11-7.85-5-13.35-5s-10.07,2.34-14.87,7a64.68,64.68,0,0,1-4.91-14.87,66.38,66.38,0,0,1,6.55-2.34c-8.31,2.69-22,7.14-27.62,13.58C6.71,139.48,2.93,163.26,0,180H138.54C135.73,163.26,131.83,139.48,123.52,129.88Z"/><path class="cls-3" d="M100.23,47.7c-.93,0-2,2.11-2,2.11C94.15,51.09,98.6,35.92,97,33s-2.5-5.51-6.37-13.94-13.18-5-20.33-5c-11.12,0-12.84-2.28-15.18,1.46s-11.6-5-11.9,10.24c0,2.22-8.38,8.66-1.36,24.82.29.68-1.41-.81-1.41-.81s-1-2.11-2-2.11S36,51.8,36,58.23s.12,5.86,2.23,8.2a39.3,39.3,0,0,0,4.09,3.75h0C46.5,87,57,98.86,69.33,98.86s22.83-11.94,27-28.68h0a28,28,0,0,0,4.1-3.75c2.1-2.23,2.22-1.76,2.22-8.2S101.29,47.7,100.23,47.7Z"/><ellipse class="cls-7" cx="54.81" cy="57.65" rx="2.58" ry="4.57"/><path class="cls-7" d="M62,47.81c-2.22-.35-4.56-.58-6.91-.81a15.44,15.44,0,0,0-3.27-.12,7.41,7.41,0,0,0-3.05,1h0c-.23.12-.47.12-.58-.12s-.12-.46.11-.58a9.63,9.63,0,0,1,3.28-1.64c1.29-.23,2.46-.23,3.63-.35,2.34,0,4.68,0,7,.12a1.23,1.23,0,1,1-.12,2.45c0,.12,0,0-.12,0Z"/><ellipse class="cls-7" cx="83.84" cy="57.65" rx="2.58" ry="4.57"/><path class="cls-7" d="M76.7,47.81c2.23-.35,4.57-.58,6.91-.81a15.51,15.51,0,0,1,3.28-.12,7.41,7.41,0,0,1,3,1h0c.24.12.47.12.59-.12s.11-.46-.12-.58a9.54,9.54,0,0,0-3.28-1.64c-1.29-.23-2.46-.23-3.63-.35-2.34,0-4.68,0-7,.12a1.23,1.23,0,1,0,.12,2.45c0,.12,0,0,.11,0Z"/><path class="cls-5" d="M69.09,77.08a36,36,0,0,1-12.29-2,12.42,12.42,0,0,0,24.59,0A40.43,40.43,0,0,1,69.09,77.08Z"/><path class="cls-8" d="M103.84,19.92a.15.15,0,0,1,0,.19,15.69,15.69,0,0,0-4.48,11V44.86a6.73,6.73,0,0,1-6.74,6.73V37.45a2.07,2.07,0,0,0-2.67-2,28,28,0,0,1-14.18.83c-9-2-11.56-5.49-18.92-7.26A12.62,12.62,0,0,0,41.22,41.42c0,2.64.06,5.95.06,10.17a6.4,6.4,0,0,1-6.48-6.36V34.46c-.08-3.75.09-17,9.64-26.19,11.11-10.7,28.72-9.83,41.47-4.1a.53.53,0,0,1,0,1L82.56,6.49a.52.52,0,0,0,.15,1l1.61.17A26.16,26.16,0,0,1,103.84,19.92Z"/><rect class="cls-9" x="88.7" y="149.6" width="27.98" height="21.02" transform="translate(262.81 57.42) rotate(90)"/><rect class="cls-6" x="96.26" y="151.66" width="12.86" height="12.86"/><rect class="cls-6" x="96.26" y="166.87" width="12.86" height="2.81"/><rect class="cls-10" x="100.16" y="143.09" width="5.06" height="6.07"/><path class="cls-1" d="M172.5,66.5A27.5,27.5,0,1,0,200,94,27.5,27.5,0,0,0,172.5,66.5Z"/><path class="cls-5" d="M175.27,96.65a3.76,3.76,0,1,1-6.52-3.76h0c1-1.81,10.2-10.14,10.2-10.14S176.31,94.85,175.27,96.65Z"/><path class="cls-5" d="M172.5,77.88A1.52,1.52,0,0,1,171,76.36v-2.6a1.52,1.52,0,1,1,3,0v2.6A1.52,1.52,0,0,1,172.5,77.88Z"/><path class="cls-5" d="M163.93,80.18a1.51,1.51,0,0,1-1.31-.76l-1.3-2.26A1.52,1.52,0,0,1,164,75.64h0l1.3,2.26a1.51,1.51,0,0,1-.56,2.07,1.45,1.45,0,0,1-.76.21Z"/><path class="cls-5" d="M157.67,86.45a1.45,1.45,0,0,1-.76-.21l-2.26-1.3a1.52,1.52,0,0,1,1.52-2.63h0l2.25,1.3a1.52,1.52,0,0,1-.75,2.84Z"/><path class="cls-5" d="M155.37,95h-2.61a1.52,1.52,0,0,1,0-3h2.61a1.52,1.52,0,0,1,0,3Z"/><path class="cls-5" d="M155.41,104.88a1.52,1.52,0,0,1-.76-2.83l2.26-1.3a1.52,1.52,0,1,1,1.51,2.63l-2.25,1.3a1.54,1.54,0,0,1-.76.2Z"/><path class="cls-5" d="M181.07,80.18a1.52,1.52,0,0,1-1.52-1.52,1.54,1.54,0,0,1,.2-.76l1.3-2.26a1.52,1.52,0,0,1,2.63,1.52h0l-1.3,2.26A1.51,1.51,0,0,1,181.07,80.18Z"/><path class="cls-5" d="M187.34,86.45a1.52,1.52,0,0,1-.76-2.84l2.25-1.3a1.52,1.52,0,1,1,1.52,2.63l-2.25,1.3A1.45,1.45,0,0,1,187.34,86.45Z"/><path class="cls-5" d="M192.24,95h-2.61a1.52,1.52,0,0,1,0-3h2.61a1.52,1.52,0,0,1,0,3Z"/><path class="cls-5" d="M189.59,104.88a1.54,1.54,0,0,1-.76-.2l-2.25-1.3a1.52,1.52,0,1,1,1.51-2.63l2.26,1.3a1.51,1.51,0,0,1,.56,2.07,1.53,1.53,0,0,1-1.32.76Z"/><path class="cls-1" d="M188.31,0H156.7a5.38,5.38,0,0,0-5.39,5.38V37.72a1.79,1.79,0,0,0,1.81,1.79h12.11a2.17,2.17,0,0,1,2.17,2.17c0,7.09,0,10.46,0,12.11a1.81,1.81,0,0,0,1.8,1.81h19.11a5.38,5.38,0,0,0,5.38-5.39V5.38A5.38,5.38,0,0,0,188.31,0ZM172.43,6a5.33,5.33,0,1,1-5.33,5.33A5.34,5.34,0,0,1,172.43,6Zm-8,17.25a3.47,3.47,0,0,1,2.06-3.17c2.76-1.24,2.72-1.26,3.15-1.26h5.57c.45,0,.43,0,3.16,1.26a3.47,3.47,0,0,1,2.06,3.17v2.17A1.58,1.58,0,0,1,178.83,27H166a1.58,1.58,0,0,1-1.58-1.58Zm18.18,24H172.17a1.8,1.8,0,1,1,0-3.59h10.42a1.8,1.8,0,1,1,0,3.59Zm0-10.32H162.3a1.79,1.79,0,0,1,0-3.58h20.29a1.79,1.79,0,1,1,0,3.58Z"/><path class="cls-1" d="M163.08,42.19H153A1.65,1.65,0,0,0,151.8,45l10.11,10.11A1.65,1.65,0,0,0,164.73,54V43.84A1.65,1.65,0,0,0,163.08,42.19Z"/><rect class="cls-1" x="145" y="132.64" width="55" height="38.05" rx="3"/><polygon class="cls-1" points="172.5 169.53 181.47 169.53 176.99 174.77 172.5 180 168.01 174.77 163.53 169.53 172.5 169.53"/><polygon class="cls-5" points="156.63 144.25 158.71 148.47 163.37 149.15 160 152.43 160.79 157.07 156.63 154.88 152.47 157.07 153.26 152.43 149.89 149.15 154.55 148.47 156.63 144.25"/><polygon class="cls-5" points="172.81 144.25 174.89 148.47 179.54 149.15 176.17 152.43 176.97 157.07 172.81 154.88 168.64 157.07 169.44 152.43 166.07 149.15 170.72 148.47 172.81 144.25"/><polygon class="cls-5" points="188.37 144.25 190.45 148.47 195.11 149.15 191.74 152.43 192.53 157.07 188.37 154.88 184.21 157.07 185 152.43 181.63 149.15 186.29 148.47 188.37 144.25"/></svg>