<svg id="design" xmlns="http://www.w3.org/2000/svg" viewBox="0 0 200 180"><defs><style>.cls-1{fill:#e6e6e6;}.cls-2{fill:#f0f0f0;}.cls-3{fill:#c3e7fc;}.cls-4{fill:#70bef2;}.cls-5{fill:#0f89db;}.cls-6{fill:#005eb8;}.cls-7{fill:#fdb143;}.cls-8{fill:none;stroke:#ed8b00;stroke-miterlimit:10;stroke-width:3px;}.cls-9{fill:#fff;}</style></defs><rect class="cls-1" y="137.46" width="17.69" height="42.54"/><rect class="cls-1" x="44.84" y="144.09" width="17.69" height="35.91"/><rect class="cls-2" x="22.35" y="126.8" width="17.69" height="53.2"/><rect class="cls-1" x="90.88" y="88.89" width="17.69" height="91.11"/><rect class="cls-1" x="182.31" y="73.12" width="17.69" height="106.88"/><rect class="cls-2" x="159.27" y="88.89" width="17.69" height="91.11"/><rect class="cls-1" x="136.91" y="111.32" width="17.69" height="68.68"/><rect class="cls-2" x="67.76" y="100.76" width="17.69" height="79.24"/><rect class="cls-2" x="113.79" y="119.28" width="17.69" height="60.72"/><g id="Blue_Economy" data-name="Blue Economy"><path class="cls-3" d="M99.94,8.38a63.06,63.06,0,0,1,50.2,25.12H137.79v8.38h24.37V16.75h-8.38v8.1A71,71,0,0,0,82.14,2.24l2.1,8.11a63.07,63.07,0,0,1,15.7-2Z"/><path class="cls-4" d="M171.47,71.47a71.45,71.45,0,0,0-2.24-17.79l-8.12,2.08A62.82,62.82,0,0,1,138,121.66V109.29h-8.38v24.38h25.13v-8.38h-8.08A71.38,71.38,0,0,0,171.47,71.47Z"/><path class="cls-5" d="M99.94,134.56a63.06,63.06,0,0,1-50.2-25.12H62.1v-8.38H37.7v25.13h8.37v-8.13a71,71,0,0,0,71.67,22.64l-2.1-8.12A62.62,62.62,0,0,1,99.94,134.56Z"/><path class="cls-6" d="M36.91,71.47A63,63,0,0,1,62,21.27V33.63h8.38V9.22H45.28v8.37h8.14A71,71,0,0,0,30.77,89.26l8.12-2.08a62.87,62.87,0,0,1-2-15.71Z"/></g><circle class="cls-7" cx="100" cy="71.47" r="37.69"/><circle class="cls-8" cx="100" cy="71.47" r="31.48"/><path class="cls-9" d="M97.6,86.82A27.87,27.87,0,0,1,88.68,85a1.68,1.68,0,0,1-1.08-1.56V79.22a1.65,1.65,0,0,1,1.65-1.66,1.77,1.77,0,0,1,.64.12A34.07,34.07,0,0,0,93.57,79a20.45,20.45,0,0,0,5.66.94,6.71,6.71,0,0,0,3-.48,1.76,1.76,0,0,0,.26-3,10.54,10.54,0,0,0-2.23-1.23c-1-.46-2.47-1-4.25-1.66a19.29,19.29,0,0,1-4.86-2.5A8.65,8.65,0,0,1,88.43,68a9.65,9.65,0,0,1-.84-4.27A7.71,7.71,0,0,1,90.1,57.6q2.52-2.24,7.53-2.73V52.76a1.11,1.11,0,0,1,1.11-1.1h2.67a1.11,1.11,0,0,1,1.11,1.1h0v2.09a27,27,0,0,1,7.89,1.68,1.66,1.66,0,0,1,1,2.14l0,.09-1.53,3.65a1.66,1.66,0,0,1-2.15.9,20.46,20.46,0,0,0-7.44-1.59,5.52,5.52,0,0,0-2.66.46,1.49,1.49,0,0,0-.74,1.36,1.67,1.67,0,0,0,.55,1.3A7.69,7.69,0,0,0,99.34,66c.91.42,2.18.92,3.81,1.49a18.52,18.52,0,0,1,7.11,4,8,8,0,0,1,2.15,5.77,8.63,8.63,0,0,1-2.52,6.47,12.29,12.29,0,0,1-7.35,3.08v3.47a1.1,1.1,0,0,1-1.13,1H98.73a1.11,1.11,0,0,1-1.11-1.1h0Z"/></svg>