<?xml version="1.0" encoding="utf-8"?>
<!-- Generator: Adobe Illustrator 24.2.1, SVG Export Plug-In . SVG Version: 6.00 Build 0)  -->
<svg version="1.1" id="design" xmlns="http://www.w3.org/2000/svg" xmlns:xlink="http://www.w3.org/1999/xlink" x="0px" y="0px"
	 viewBox="0 0 200 180" style="enable-background:new 0 0 200 180;" xml:space="preserve">
<style type="text/css">
	.st0{fill:#E5F3FD;}
	.st1{fill:none;stroke:#005EB8;stroke-width:10;stroke-miterlimit:10;}
	.st2{fill:#FFC431;}
	.st3{fill:#ED8B00;}
	.st4{fill:#FBB040;}
	.st5{fill:#005EB8;}
	.st6{fill:#0F89DB;}
</style>
<g>
	<path class="st0" d="M110.6,147.3l15.4,15.4c3-1,5.8-2.3,8.6-3.7l-18.3-18.3c-1.9,0.6-3.8,1.1-5.7,1.5L110.6,147.3z"/>
	<path class="st0" d="M88.5,37.9V13.8C72.1,16.2,57,24,45.4,35.8c-11.7,12-19.3,27.4-21.6,44h23.8C51.7,59,67.9,42.5,88.5,37.9z"/>
	<path class="st0" d="M47.7,100.5l-24.1,0c4.8,33.9,31.4,60.6,65.3,65.5c0.1-7.6,0.1-16.5,0.2-23.9
		C68.3,137.9,51.9,121.4,47.7,100.5z"/>
	<path class="st0" d="M176.4,79.8c-1.7-13.1-6.8-25.6-14.8-36.2l-17,17.1c3.8,5.7,6.5,12.2,7.8,19.1H176.4z"/>
	<path class="st0" d="M110.6,166.4c3.1-0.4,6.2-1,9.3-1.8l-9.2-9.2L110.6,166.4z"/>
	<path class="st0" d="M134.6,130.5l16.9,16.9c2.2-1.9,4.2-4,6.1-6.1l-17-16.9C138.9,126.6,136.8,128.7,134.6,130.5z"/>
	<path class="st0" d="M174.7,109.5c0.7-2.7,1.2-5.4,1.6-8.1h-9.7L174.7,109.5z"/>
	<path class="st0" d="M152.1,101.4c-0.3,1.6-0.7,3.1-1.2,4.7l18.3,18.3c1.4-2.8,2.6-5.7,3.6-8.6l-14.3-14.3H152.1z"/>
	<path class="st0" d="M146.3,28.4c-10.6-8-23-13.1-36.2-14.8v24.1c7,1.3,13.5,4,19.2,7.8L146.3,28.4z"/>
	<path class="st0" d="M161.3,136.9c1.8-2.3,3.4-4.8,4.9-7.3l-17.7-17.7c-1.2,2.7-2.7,5.4-4.4,7.8L161.3,136.9z"/>
	<path class="st0" d="M139.8,156.1c2.5-1.5,4.9-3.2,7.3-5L130,134.1c-2.5,1.7-5.1,3.2-7.8,4.4L139.8,156.1z"/>
</g>
<g>
	<g>
		<polyline class="st1" points="15.8,45.5 15.8,4 57.2,4 		"/>
		<polyline class="st1" points="184.2,45.5 184.2,4 142.8,4 		"/>
		<polyline class="st1" points="15.8,134.5 15.8,176 57.2,176 		"/>
		<polyline class="st1" points="184.2,134.5 184.2,176 142.8,176 		"/>
	</g>
</g>
<g>
	<polygon class="st2" points="65.9,54.9 50.5,133.4 51.1,130.7 	"/>
	<polygon class="st3" points="134.1,54.9 76.1,54.9 91,130.7 91.5,133.4 149.5,133.4 	"/>
	<g>
		<polygon class="st4" points="124.3,77.9 100.3,77.9 106.4,109.3 106.6,110.4 130.6,110.4 		"/>
		<polygon class="st4" points="131.5,115.4 107.5,115.4 108.2,118 108.4,119.1 132.4,119.1 		"/>
	</g>
	<polygon class="st4" points="76.1,54.9 65.9,54.9 51.1,130.7 50.5,133.4 91.5,133.4 91,130.7 	"/>
	<path class="st3" d="M91.6,133.3h-2.7l-17.8-14.8l-17.8,14.8h-2.7l0.5-2.7l18.2-15.2V54.9h3.4v60.5l18.2,15.2L91.6,133.3z"/>
	<path class="st5" d="M112,54.8h-3.4V44.6c0-4.7-3.8-8.5-8.5-8.5c-4.7,0-8.5,3.8-8.5,8.5v10.2h-3.4V44.6c0-6.6,5.3-11.9,11.9-11.9
		S112,38,112,44.6V54.8z"/>
	<path class="st6" d="M120.6,68.5h-3.4V44.6c0-4.7-3.8-8.5-8.5-8.5c-4.7,0-8.5,3.8-8.5,8.5v23.9h-3.4V44.6c0-6.6,5.3-11.9,11.9-11.9
		s11.9,5.3,11.9,11.9V68.5z"/>
</g>
</svg>
