<svg width="73" height="72" fill="none" xmlns="http://www.w3.org/2000/svg"><path fill-rule="evenodd" clip-rule="evenodd" d="M13.773 58.42c.06.52 8.29 3.08 23.4 3.08s23-2.56 23-3.08c.2-1.73.44-5.57-1.09-7.85-2-3-6.89-5.3-11-6.47s-5.48-3.78-5.19-5c.29-1.22 1.21-.84 2.13-2.57a21.42 21.42 0 001.32-4.92s1.89-.63 2.1-3.47c.21-2.84 0-3.89-.71-4.22a2.52 2.52 0 00-1-.3s.47-4 .47-4.89a11.688 11.688 0 00-.2-3.22c-1.07-3.84-5.4-5.52-10.49-5.52h-.37c-5.25.08-5.33 1.67-6.42 2.84-1.09 1.17-1.81.25-2.78 2.05-.59 1.09 0 6.24 0 6.24.17 1.42.37 2.5.37 2.5a2.52 2.52 0 00-1 .3c-.71.33-.92 1.38-.71 4.22.21 2.84 2.1 3.47 2.1 3.47.23 1.688.659 3.343 1.28 4.93.92 1.73 1.83 1.36 2.13 2.57.3 1.21-1 3.82-5.19 5-4.19 1.18-9 3.46-11 6.47-1.59 2.27-1.35 6.11-1.15 7.84z" fill="#93C9EC"/><path fill-rule="evenodd" clip-rule="evenodd" d="M31.544 52.162c-.039.34-5.404 2.008-15.253 2.008-9.85 0-14.993-1.669-14.993-2.008-.13-1.127-.287-3.63.71-5.117C3.313 45.09 6.5 43.59 9.18 42.828c2.68-.763 3.572-2.464 3.383-3.26-.189-.795-.788-.547-1.388-1.675a13.96 13.96 0 01-.86-3.207s-1.233-.41-1.37-2.262c-.136-1.851 0-2.536.463-2.75.202-.11.424-.177.652-.196 0 0-.306-2.608-.306-3.188a7.62 7.62 0 01.13-2.099c.698-2.503 3.52-3.598 6.838-3.598h.241c3.422.052 3.475 1.089 4.185 1.851.71.763 1.18.163 1.812 1.337.385.71 0 4.067 0 4.067-.11.926-.24 1.63-.24 1.63.228.019.45.085.651.195.463.215.6.9.463 2.751-.137 1.851-1.37 2.262-1.37 2.262-.148 1.1-.428 2.18-.834 3.214-.6 1.127-1.192.886-1.388 1.675-.195.789.652 2.49 3.383 3.26 2.732.768 5.867 2.255 7.17 4.217 1.037 1.48.88 3.983.75 5.11zM42.453 52.162c.039.34 5.404 2.008 15.253 2.008 9.85 0 14.993-1.669 14.993-2.008.13-1.127.287-3.63-.71-5.117-1.304-1.955-4.492-3.455-7.171-4.217-2.68-.763-3.572-2.464-3.383-3.26.189-.795.789-.547 1.388-1.675.414-1.03.703-2.108.86-3.207 0 0 1.233-.41 1.37-2.262.136-1.851 0-2.536-.463-2.75a1.643 1.643 0 00-.652-.196s.306-2.608.306-3.188a7.617 7.617 0 00-.13-2.099c-.698-2.503-3.52-3.598-6.838-3.598h-.241c-3.422.052-3.475 1.089-4.185 1.851-.71.763-1.18.163-1.812 1.337-.385.71 0 4.067 0 4.067.11.926.24 1.63.24 1.63-.228.019-.45.085-.65.195-.464.215-.6.9-.464 2.751.137 1.851 1.37 2.262 1.37 2.262.148 1.1.429 2.18.834 3.214.6 1.127 1.192.886 1.388 1.675.196.789-.652 2.49-3.383 3.26-2.731.768-5.867 2.255-7.17 4.217-1.037 1.48-.88 3.983-.75 5.11z" fill="#93C9EC"/><path d="M36.483 10c5.09 0 9.43 1.68 10.49 5.52.22 1.058.288 2.143.2 3.22 0 .85-.47 4.89-.47 4.89.351.028.692.13 1 .3.72.33.93 1.38.72 4.22-.21 2.84-2.11 3.47-2.11 3.47a21.415 21.415 0 01-1.33 4.92c-.92 1.73-1.83 1.36-2.12 2.57-.29 1.21 1 3.82 5.18 5 4.18 1.18 9 3.46 11.05 6.47 1.52 2.28 1.28 6.12 1.08 7.85-.06.52-7.9 3.08-23 3.08s-23.34-2.56-23.4-3.08c-.21-1.73-.45-5.57 1.08-7.85 2-3 6.89-5.3 11-6.47s5.48-3.78 5.19-5c-.29-1.22-1.16-.84-2.06-2.57a21.425 21.425 0 01-1.32-4.92s-1.89-.63-2.1-3.47c-.21-2.84 0-3.89.71-4.22a2.5 2.5 0 011-.3s-.2-1.08-.37-2.5c0 0-.57-5.15 0-6.24 1-1.8 1.69-.88 2.78-2.05 1.09-1.17 1.17-2.76 6.42-2.84h.38zm-.01-2h-.4c-4.92.08-6.35 1.48-7.49 3-.109.162-.229.315-.36.46-.09.1-.09.1-.35.18a4.1 4.1 0 00-2.73 2.28c-.59 1.09-.67 3.58-.25 7.4 0 .35.09.68.13 1-1.84 1.2-1.64 3.94-1.49 6a6.129 6.129 0 002.29 4.57c.251 1.59.712 3.14 1.37 4.61a5.85 5.85 0 001.88 2.16c-.22.58-1.24 1.83-3.72 2.53-2.11.6-9.21 2.88-12.16 7.28-1.85 2.76-1.68 7-1.41 9.21.18 1.52 1.72 2 2.95 2.37 1.556.462 3.14.826 4.74 1.09a101.616 101.616 0 0017.7 1.38 98.327 98.327 0 0017.51-1.38c7.23-1.32 7.36-2.46 7.48-3.46.27-2.26.44-6.45-1.4-9.21-2.94-4.42-10.05-6.72-12.16-7.3-2.48-.7-3.5-2-3.72-2.53a5.94 5.94 0 001.89-2.16 18.65 18.65 0 001.37-4.61 6.12 6.12 0 002.28-4.57c.15-2.06.36-4.85-1.55-6 .13-1.29.3-3 .3-3.53v-.58a10.628 10.628 0 00-.28-3.18c-1.23-4.45-5.76-7-12.42-7V8z" fill="#fff"/></svg>