<svg xmlns="http://www.w3.org/2000/svg" width="64" height="74" viewBox="0 0 64 74"><title>icon-data-security</title><path fill="#92c9ec" fill-rule="evenodd" d="M60 10.43c0 5.76-13.43 10.43-30 10.43S0 16.19 0 10.43 13.43 0 30 0s30 4.67 30 10.43z"/><path fill="#92c9ec" fill-rule="evenodd" d="M30 26.28C14 26.28.89 21.9.08 16.39H0v10c0 5.76 13.43 10.43 30 10.43s30-4.67 30-10.43v-10h-.08C59.11 21.9 46 26.28 30 26.28z"/><path fill="#92c9ec" fill-rule="evenodd" d="M30 42.39C14 42.39.89 38 .08 32.5H0v10C0 48.3 13.43 53 30 53s30-4.7 30-10.46v-10h-.08C59.11 38 46 42.39 30 42.39z"/><path fill="#92c9ec" fill-rule="evenodd" d="M30 57.42C14 57.42.89 53 .08 47.53H0v10C0 63.33 13.43 68 30 68s30-4.67 30-10.43V47.5c-.82 5.5-14 9.92-30 9.92z"/><path fill="#103654" d="M51.5 44L39 46.49v15.35C39 70.66 51.5 74 51.5 74S64 70.66 64 61.84V46.49z"/><path fill="#fff" d="M51.37 63.22l-.65.76a1 1 0 0 0 .77.23 1 1 0 0 0 .69-.41zm-6.77-4.47L50.72 64 52 62.46l-6.1-5.23zm7.58 5l7.43-10.47L58 52.17l-7.45 10.47z"/></svg>
