<svg id="design" xmlns="http://www.w3.org/2000/svg" viewBox="0 0 200 180"><defs><style>.cls-1,.cls-2,.cls-3{fill:none;stroke:#e8e8e8;stroke-linecap:round;stroke-linejoin:round;stroke-width:6px;}.cls-2{stroke-dasharray:0.1 9.59;}.cls-3{stroke-dasharray:0.1 9.97;}.cls-4{fill:#ed8b00;}.cls-5{fill:#005eb8;}.cls-6{fill:#84dbff;}.cls-7{fill:#0f89db;}.cls-8{fill:#70bef2;}.cls-9{fill:#fbb040;}.cls-10{fill:#0a0080;}.cls-11{fill:#e8e8e8;}</style></defs><line class="cls-1" x1="14.45" y1="77.31" x2="14.48" y2="77.35"/><line class="cls-2" x1="20.98" y1="84.4" x2="89.97" y2="159.19"/><line class="cls-1" x1="93.22" y1="162.71" x2="93.26" y2="162.75"/><line class="cls-1" x1="14.45" y1="77.31" x2="14.5" y2="77.31"/><line class="cls-3" x1="24.46" y1="77.31" x2="180.52" y2="77.31"/><line class="cls-1" x1="185.5" y1="77.31" x2="185.55" y2="77.31"/><path class="cls-4" d="M185.55,25.72a14.47,14.47,0,0,0-14.44,14.45c0,9.92,13,24.48,13.47,25.1a1.27,1.27,0,0,0,1.95,0c.62-.62,13.47-15.18,13.47-25.1A14.48,14.48,0,0,0,185.55,25.72Zm0,21.67a7.23,7.23,0,0,1-7.22-7.22A7.31,7.31,0,0,1,185.55,33a7.24,7.24,0,0,1,7.23,7.22A7.16,7.16,0,0,1,185.55,47.39Z"/><path class="cls-5" d="M101.89,28.4H77.21V73.14h40.44V53l-4.71-16.3a11.51,11.51,0,0,0-11-8.3"/><path class="cls-6" d="M111.75,52.79l-4.21-14.53A5.91,5.91,0,0,0,101.89,34H82.83V52.79Z"/><polygon class="cls-7" points="111.75 52.79 82.82 52.79 82.82 34.01 111.75 52.79"/><path class="cls-8" d="M111.75,52.79l-4.21-14.53A5.91,5.91,0,0,0,101.89,34H82.83Z"/><path class="cls-9" d="M7.47,5.94H69.74a7.47,7.47,0,0,1,7.47,7.47V73.14H0V13.41A7.46,7.46,0,0,1,7.47,5.94"/><polygon class="cls-4" points="50.6 5.95 50.6 25.69 47.72 22.8 44.69 25.83 41.66 22.8 38.63 25.83 35.6 22.8 32.54 25.83 29.52 22.8 26.59 25.73 26.59 5.95 50.6 5.95"/><path class="cls-10" d="M119.55,73.13v8.44H0V73.13H12.49a17.12,17.12,0,0,1,29.88,0H82.51a17.1,17.1,0,0,1,29.86,0Z"/><path class="cls-5" d="M109.36,81.52A11.93,11.93,0,1,1,97.43,69.59a11.93,11.93,0,0,1,11.93,11.93"/><path class="cls-7" d="M102.23,81.52a4.8,4.8,0,1,1-4.8-4.79,4.79,4.79,0,0,1,4.8,4.79"/><path class="cls-5" d="M39.35,81.52A11.93,11.93,0,1,1,27.42,69.59,11.93,11.93,0,0,1,39.35,81.52"/><path class="cls-7" d="M32.21,81.52a4.8,4.8,0,1,1-4.79-4.79,4.78,4.78,0,0,1,4.79,4.79"/><circle class="cls-4" cx="185.55" cy="77.31" r="4"/><path class="cls-11" d="M100,118.47a14.48,14.48,0,0,0-14.45,14.45c0,9.91,13,24.48,13.47,25.09a1.27,1.27,0,0,0,2,0c.61-.61,13.47-15.18,13.47-25.09A14.48,14.48,0,0,0,100,118.47Zm0,21.67a7.23,7.23,0,0,1-7.22-7.22A7.31,7.31,0,0,1,100,125.7a7.23,7.23,0,0,1,7.22,7.22A7.15,7.15,0,0,1,100,140.14Z"/><circle class="cls-11" cx="100" cy="170.06" r="4"/></svg>