<?xml version="1.0" encoding="utf-8"?>
<!-- Generator: Adobe Illustrator 24.2.1, SVG Export Plug-In . SVG Version: 6.00 Build 0)  -->
<svg version="1.1" id="design" xmlns="http://www.w3.org/2000/svg" xmlns:xlink="http://www.w3.org/1999/xlink" x="0px" y="0px"
	 viewBox="0 0 200 180" style="enable-background:new 0 0 200 180;" xml:space="preserve">
<style type="text/css">
	.st0{fill:#C3E7FC;}
	.st1{fill:#70BEF2;}
	.st2{fill:#FFFFFF;}
	.st3{fill:#005EB8;}
	.st4{fill:#FBB040;}
	.st5{fill:#0A0080;}
	.st6{fill:#ED8B00;}
	.st7{fill:#DEF2FC;}
</style>
<g>
	<g>
		<path class="st0" d="M196.4,180H3.6c-2,0-3.6-1.6-3.6-3.6V50.8c0-2,1.6-3.6,3.6-3.6h192.8c2,0,3.6,1.6,3.6,3.6v125.5
			C200,178.4,198.4,180,196.4,180z"/>
	</g>
	<g>
		<rect x="8.2" y="59.5" class="st1" width="183.9" height="10.9"/>
	</g>
	<g>
		<g>
			<path class="st2" d="M137.5,118.5H106c-2,0-3.6-1.6-3.6-3.6V83.4c0-2,1.6-3.6,3.6-3.6h31.5c2,0,3.6,1.6,3.6,3.6v31.5
				C141.1,116.9,139.5,118.5,137.5,118.5z"/>
		</g>
		<g>
			<path class="st3" d="M132.1,89.7c0,0,0-0.1,0-0.1c-2-0.3-4.1-0.5-6.2-0.7c-0.2,2.2-2.1,4-4.1,4c-2,0-3.8-1.7-4.1-4
				c-2.1,0.1-4.1,0.3-6.2,0.7c-2.5,4.6-3.9,9-4.3,12.3c1.4,0.8,2.7,1.6,4,2.6c0.6-1.6,1.4-3.6,2.6-5.6c0.8,3.4,1.6,6.7,2.4,10.1
				c3.7,0.6,7.4,0.6,11,0c0.8-3.3,1.6-6.6,2.4-9.9c1.1,2,2,3.9,2.6,5.5c1.2-0.9,2.5-1.8,4-2.6C135.9,98.5,134.5,94.2,132.1,89.7z"/>
		</g>
	</g>
	<g>
		<g>
			<path class="st2" d="M137.5,163.3H106c-2,0-3.6-1.6-3.6-3.6v-31.5c0-2,1.6-3.6,3.6-3.6h31.5c2,0,3.6,1.6,3.6,3.6v31.5
				C141.1,161.6,139.5,163.3,137.5,163.3z"/>
		</g>
		<g>
			<path class="st4" d="M132.1,134.4c0,0,0-0.1,0-0.1c-2-0.3-4.1-0.5-6.2-0.7c-0.2,2.2-2.1,4-4.1,4c-2,0-3.8-1.7-4.1-4
				c-2.1,0.1-4.1,0.3-6.2,0.7c-2.5,4.6-3.9,9-4.3,12.3c1.4,0.8,2.7,1.6,4,2.6c0.6-1.6,1.4-3.6,2.6-5.6c0.8,3.4,1.6,6.7,2.4,10.1
				c3.7,0.6,7.4,0.6,11,0c0.8-3.3,1.6-6.6,2.4-9.9c1.1,2,2,3.9,2.6,5.5c1.2-0.9,2.5-1.8,4-2.6C135.9,143.3,134.5,139,132.1,134.4z"
				/>
		</g>
	</g>
	<g>
		<g>
			<path class="st2" d="M46.9,165.6H15.4c-2,0-3.6-1.6-3.6-3.6v-31.5c0-2,1.6-3.6,3.6-3.6h31.5c2,0,3.6,1.6,3.6,3.6V162
				C50.5,164,48.9,165.6,46.9,165.6z"/>
		</g>
		<g>
			<path class="st5" d="M41.5,136.8c0,0,0-0.1,0-0.1c-2-0.3-4.1-0.5-6.2-0.7c-0.2,2.2-2.1,4-4.1,4c-2,0-3.8-1.7-4.1-4
				c-2.1,0.1-4.1,0.3-6.2,0.7c-2.5,4.6-3.9,9-4.3,12.3c1.4,0.8,2.7,1.6,4,2.6c0.6-1.6,1.4-3.6,2.6-5.6c0.8,3.4,1.6,6.7,2.4,10.1
				c3.7,0.6,7.4,0.6,11,0c0.8-3.3,1.6-6.6,2.4-9.9c1.1,2,2,3.9,2.6,5.5c1.2-0.9,2.5-1.8,4-2.6C45.3,145.7,43.9,141.3,41.5,136.8z"/>
		</g>
	</g>
	<g>
		<g>
			<path class="st2" d="M46.9,118.5H15.4c-2,0-3.6-1.6-3.6-3.6V83.4c0-2,1.6-3.6,3.6-3.6h31.5c2,0,3.6,1.6,3.6,3.6v31.5
				C50.5,116.9,48.9,118.5,46.9,118.5z"/>
		</g>
		<g>
			<path class="st6" d="M41.5,89.7c0,0,0-0.1,0-0.1c-2-0.3-4.1-0.5-6.2-0.7c-0.2,2.2-2.1,4-4.1,4c-2,0-3.8-1.7-4.1-4
				c-2.1,0.1-4.1,0.3-6.2,0.7c-2.5,4.6-3.9,9-4.3,12.3c1.4,0.8,2.7,1.6,4,2.6c0.6-1.6,1.4-3.6,2.6-5.6c0.8,3.4,1.6,6.7,2.4,10.1
				c3.7,0.6,7.4,0.6,11,0c0.8-3.3,1.6-6.6,2.4-9.9c1.1,2,2,3.9,2.6,5.5c1.2-0.9,2.5-1.8,4-2.6C45.3,98.5,43.9,94.2,41.5,89.7z"/>
		</g>
	</g>
	<g>
		<g>
			<rect x="57.8" y="88" class="st2" width="32.6" height="4.2"/>
		</g>
		<g>
			<rect x="57.8" y="97" class="st2" width="32.6" height="4.2"/>
		</g>
		<g>
			<rect x="57.8" y="106.1" class="st2" width="32.6" height="4.2"/>
		</g>
		<g>
			<rect x="57.8" y="88" class="st6" width="16.3" height="4.2"/>
		</g>
		<g>
			<rect x="57.8" y="97" class="st6" width="23.7" height="4.2"/>
		</g>
		<g>
			<rect x="57.8" y="106.1" class="st6" width="11.9" height="4.2"/>
		</g>
	</g>
	<g>
		<g>
			<rect x="147.8" y="88" class="st3" width="32.6" height="4.2"/>
		</g>
		<g>
			<rect x="147.8" y="97" class="st3" width="32.6" height="4.2"/>
		</g>
		<g>
			<rect x="147.8" y="106.1" class="st2" width="32.6" height="4.2"/>
		</g>
		<g>
			<rect x="147.8" y="106.1" class="st3" width="16.3" height="4.2"/>
		</g>
	</g>
	<g>
		<g>
			<rect x="147.8" y="132.7" class="st2" width="32.6" height="4.2"/>
		</g>
		<g>
			<rect x="147.8" y="141.8" class="st2" width="32.6" height="4.2"/>
		</g>
		<g>
			<rect x="147.8" y="150.9" class="st4" width="32.6" height="4.2"/>
		</g>
		<g>
			<rect x="147.8" y="132.7" class="st4" width="14.1" height="4.2"/>
		</g>
		<g>
			<rect x="147.8" y="141.8" class="st4" width="26.4" height="4.2"/>
		</g>
	</g>
	<g>
		<g>
			<g>
				<rect x="56" y="135.1" class="st2" width="32.6" height="4.2"/>
			</g>
			<g>
				<rect x="56" y="144.1" class="st2" width="32.6" height="4.2"/>
			</g>
			<g>
				<rect x="56" y="153.2" class="st2" width="32.6" height="4.2"/>
			</g>
			<g>
				<rect x="56" y="135.1" class="st5" width="29.8" height="4.2"/>
			</g>
			<g>
				<rect x="56" y="144.1" class="st5" width="27.7" height="4.2"/>
			</g>
			<g>
				<rect x="56" y="153.2" class="st5" width="4.2" height="4.2"/>
			</g>
		</g>
	</g>
</g>
<path class="st0" d="M23.1,37.2h-9.3c-1.1,0-2-0.9-2-2v-9.3c0-1.1,0.9-2,2-2h9.3c1.1,0,2,0.9,2,2v9.3C25.1,36.3,24.2,37.2,23.1,37.2
	z"/>
<path class="st0" d="M60.6,13.3h-9.3c-1.1,0-2-0.9-2-2V2c0-1.1,0.9-2,2-2h9.3c1.1,0,2,0.9,2,2v9.3C62.6,12.4,61.7,13.3,60.6,13.3z"
	/>
<path class="st1" d="M140.4,23.9h-9.3c-1.1,0-2-0.9-2-2v-9.3c0-1.1,0.9-2,2-2h9.3c1.1,0,2,0.9,2,2v9.3
	C142.4,23,141.5,23.9,140.4,23.9z"/>
<path class="st7" d="M160.9,30.5h-9.3c-1.1,0-2-0.9-2-2v-9.3c0-1.1,0.9-2,2-2h9.3c1.1,0,2,0.9,2,2v9.3
	C162.9,29.7,162,30.5,160.9,30.5z"/>
<path class="st1" d="M48.5,42.2h-9.3c-1.1,0-2-0.9-2-2v-9.3c0-1.1,0.9-2,2-2h9.3c1.1,0,2,0.9,2,2v9.3C50.5,41.3,49.6,42.2,48.5,42.2
	z"/>
<path class="st0" d="M110.6,35.5h-9.3c-1.1,0-2-0.9-2-2v-9.3c0-1.1,0.9-2,2-2h9.3c1.1,0,2,0.9,2,2v9.3
	C112.6,34.7,111.7,35.5,110.6,35.5z"/>
<path class="st0" d="M190,42.2h-9.3c-1.1,0-2-0.9-2-2v-9.3c0-1.1,0.9-2,2-2h9.3c1.1,0,2,0.9,2,2v9.3C192,41.3,191.1,42.2,190,42.2z"
	/>
<path class="st7" d="M88.5,27.2h-9.3c-1.1,0-2-0.9-2-2v-9.3c0-1.1,0.9-2,2-2h9.3c1.1,0,2,0.9,2,2v9.3C90.5,26.3,89.6,27.2,88.5,27.2
	z"/>
</svg>
