<svg id="design" xmlns="http://www.w3.org/2000/svg" viewBox="0 0 200 180"><defs><style>.cls-1{fill:#005eb8;}.cls-2{fill:#0a0080;}.cls-3{fill:#fbb040;}.cls-4{fill:#c3e7fc;}.cls-5{fill:#70bef2;}.cls-6{fill:#ed8b00;}.cls-7{fill:none;stroke:#70bef2;stroke-miterlimit:10;stroke-width:7px;}</style></defs><title>use-cases</title><path class="cls-1" d="M168.28,0H146.55l-.35,12.41h22.43Z"/><path class="cls-1" d="M146.2,12.41l-2.75,96.21h27.93l-2.75-96.21Z"/><path class="cls-2" d="M168.81,18.62l-.18-6.21H146.2L146,18.62Z"/><path class="cls-2" d="M143.79,96.74l-.34,11.88h27.93L170.59,81Z"/><path class="cls-1" d="M127.93,111.72v-31l-55.86,31v-31l-55.86,31V180H183.79V80.69Z"/><path class="cls-3" d="M31.72,124.14H56.55v12.41H31.72Z"/><path class="cls-3" d="M87.59,124.14h24.83v12.41H87.59Z"/><path class="cls-3" d="M143.45,124.14h24.83v12.41H143.45Z"/><path class="cls-4" d="M75.17,158.28H100V180H75.17Z"/><path class="cls-4" d="M100,158.28h24.83V180H100Z"/><path class="cls-5" d="M100,178.45V180h24.83V158.28h-4.66Z"/><path class="cls-5" d="M75.17,178.45V180H100V158.28H95.34Z"/><path class="cls-1" d="M96.9,158.28h6.21V180H96.9Z"/><path class="cls-6" d="M39.48,136.55H56.55V124.14H51.9Z"/><path class="cls-6" d="M95.34,136.55h17.07V124.14h-4.66Z"/><path class="cls-6" d="M151.21,136.55h17.07V124.14h-4.66Z"/><polyline class="cls-7" points="17.21 65.87 57.85 43.04 75.17 58.12 129.17 30.7"/><circle class="cls-4" cx="128.28" cy="30.7" r="7.13"/><circle class="cls-4" cx="75.17" cy="58.12" r="7.13"/><circle class="cls-4" cx="56.55" cy="43.93" r="7.13"/><circle class="cls-4" cx="16.21" cy="65.87" r="7.13"/></svg>