<?xml version="1.0" encoding="utf-8"?>
<!-- Generator: Adobe Illustrator 24.2.1, SVG Export Plug-In . SVG Version: 6.00 Build 0)  -->
<svg version="1.1" id="Layer_1" xmlns="http://www.w3.org/2000/svg" xmlns:xlink="http://www.w3.org/1999/xlink" x="0px" y="0px"
	 viewBox="0 0 200 180" style="enable-background:new 0 0 200 180;" xml:space="preserve">
<style type="text/css">
	.st0{fill:#005EB8;}
	.st1{fill:#FFFFFF;}
	.st2{fill:#C3E7FC;}
	.st3{fill:#0F89DB;}
	.st4{fill:#ED8B00;}
	.st5{fill:#FAFAFA;}
	.st6{fill:#FBB040;}
	.st7{fill:none;stroke:#E6E6E6;stroke-miterlimit:10;}
	.st8{fill:none;stroke:#ED8B00;stroke-width:3;stroke-linejoin:round;stroke-miterlimit:10;}
	.st9{fill:none;stroke:#ED8B00;stroke-width:3;stroke-linecap:round;stroke-linejoin:round;}
	.st10{fill:none;stroke:#ED8B00;stroke-width:3;stroke-linecap:round;stroke-linejoin:round;stroke-dasharray:9.602969e-02,4.8015;}
	.st11{fill:none;stroke:#E6E6E6;stroke-width:6;stroke-miterlimit:10;}
	.st12{fill:#E6E6E6;}
</style>
<g>
	<g>
		<path class="st0" d="M31.5,159.2h-9.6C9.8,159.2,0,149.4,0,137.3V90.9c0-5.6,4.6-10.2,10.2-10.2h33.1c5.6,0,10.2,4.6,10.2,10.2
			v46.3C53.4,149.4,43.5,159.2,31.5,159.2z"/>
		<rect x="8.6" y="88.7" class="st1" width="36.3" height="43.2"/>
		<path class="st2" d="M19.2,151.8v25.7c0,1.4,3.3,2.5,7.5,2.5s7.5-1.1,7.5-2.5v-25.7H19.2z"/>
		<circle class="st3" cx="13.2" cy="141.5" r="6"/>
		<circle class="st3" cx="40.2" cy="141.5" r="6"/>
		<path class="st4" d="M26.7,95.5c0,0-10.1,7.8-10.1,18.4c0,5.6,4.5,10.1,10.1,10.1s10.1-4.5,10.1-10.1
			C36.8,103.3,26.7,95.5,26.7,95.5z"/>
	</g>
	<rect x="88.3" class="st5" width="111.7" height="87.3"/>
	<circle class="st0" cx="97.8" cy="43.6" r="3.6"/>
	<circle class="st3" cx="97.8" cy="59.1" r="3.6"/>
	<circle class="st2" cx="97.8" cy="74.7" r="3.6"/>
	<circle class="st6" cx="97.8" cy="28.1" r="3.6"/>
	<circle class="st4" cx="97.8" cy="12.5" r="3.6"/>
	<line class="st7" x1="105.9" y1="43.6" x2="195.1" y2="43.6"/>
	<line class="st7" x1="105.9" y1="59.1" x2="195.1" y2="59.1"/>
	<line class="st7" x1="105.9" y1="74.7" x2="195.1" y2="74.7"/>
	<line class="st7" x1="105.9" y1="28.1" x2="195.1" y2="28.1"/>
	<line class="st7" x1="105.9" y1="12.5" x2="195.1" y2="12.5"/>
	<g>
		<polyline class="st8" points="105.9,65.4 121.6,48.4 137.7,63.8 155,38.5 166.4,46 		"/>
		<g>
			<g>
				<line class="st9" x1="166.4" y1="46" x2="166.4" y2="46"/>
				<line class="st10" x1="168.8" y1="42.4" x2="182.6" y2="22.4"/>
				<line class="st9" x1="183.9" y1="20.6" x2="183.9" y2="20.6"/>
			</g>
		</g>
	</g>
	<g>
		<circle class="st4" cx="183.9" cy="20.1" r="10.5"/>
		<g>
			<path class="st1" d="M185.5,22.1h-3.2l-0.5-9.1h4.1L185.5,22.1z M181.9,25.4c0-0.5,0.2-1,0.5-1.4c0.4-0.4,0.8-0.5,1.5-0.5
				c0.6,0,1.2,0.2,1.4,0.5c0.4,0.4,0.5,0.8,0.5,1.4s-0.2,1-0.5,1.4c-0.4,0.4-0.8,0.5-1.4,0.5s-1.2-0.2-1.5-0.5
				C182.1,26.4,181.9,26,181.9,25.4z"/>
		</g>
	</g>
	<g>
		<polyline class="st11" points="26.7,74.7 26.7,43.6 78.7,43.6 		"/>
		<polygon class="st12" points="64.3,57.1 64.3,30.2 82,43.6 		"/>
	</g>
	<circle class="st4" cx="26.7" cy="172.9" r="3.6"/>
</g>
</svg>
